<svg xmlns="http://www.w3.org/2000/svg" width="269" height="47" viewBox="0 0 269 47">
  <g id="pattern1" transform="translate(0.383 0.461)">
    <circle id="Ellipse_4" data-name="Ellipse 4" cx="2.5" cy="2.5" r="2.5" transform="translate(-0.383 -0.461)" fill="#85c1f5"/>
    <circle id="Ellipse_4-2" data-name="Ellipse 4" cx="2.5" cy="2.5" r="2.5" transform="translate(13.617 -0.461)" fill="#85c1f5"/>
    <circle id="Ellipse_4-3" data-name="Ellipse 4" cx="2.5" cy="2.5" r="2.5" transform="translate(27.617 -0.461)" fill="#85c1f5"/>
    <circle id="Ellipse_4-4" data-name="Ellipse 4" cx="2.5" cy="2.5" r="2.5" transform="translate(41.617 -0.461)" fill="#85c1f5"/>
    <circle id="Ellipse_4-5" data-name="Ellipse 4" cx="2.5" cy="2.5" r="2.5" transform="translate(55.617 -0.461)" fill="#85c1f5"/>
    <circle id="Ellipse_4-6" data-name="Ellipse 4" cx="2.5" cy="2.5" r="2.5" transform="translate(69.617 -0.461)" fill="#85c1f5"/>
    <circle id="Ellipse_4-7" data-name="Ellipse 4" cx="2.5" cy="2.5" r="2.5" transform="translate(83.617 -0.461)" fill="#85c1f5"/>
    <ellipse id="Ellipse_4-8" data-name="Ellipse 4" cx="2" cy="2.5" rx="2" ry="2.5" transform="translate(97.617 -0.461)" fill="#85c1f5"/>
    <circle id="Ellipse_4-9" data-name="Ellipse 4" cx="2.5" cy="2.5" r="2.5" transform="translate(110.617 -0.461)" fill="#85c1f5"/>
    <circle id="Ellipse_4-10" data-name="Ellipse 4" cx="2.5" cy="2.5" r="2.5" transform="translate(124.617 -0.461)" fill="#85c1f5"/>
    <circle id="Ellipse_4-11" data-name="Ellipse 4" cx="2.5" cy="2.5" r="2.5" transform="translate(138.617 -0.461)" fill="#85c1f5"/>
    <circle id="Ellipse_4-12" data-name="Ellipse 4" cx="2.5" cy="2.5" r="2.5" transform="translate(152.617 -0.461)" fill="#85c1f5"/>
    <circle id="Ellipse_4-13" data-name="Ellipse 4" cx="2.5" cy="2.5" r="2.5" transform="translate(166.617 -0.461)" fill="#85c1f5"/>
    <circle id="Ellipse_4-14" data-name="Ellipse 4" cx="2.5" cy="2.5" r="2.5" transform="translate(180.617 -0.461)" fill="#85c1f5"/>
    <circle id="Ellipse_4-15" data-name="Ellipse 4" cx="2.5" cy="2.5" r="2.5" transform="translate(194.617 -0.461)" fill="#85c1f5"/>
    <ellipse id="Ellipse_4-16" data-name="Ellipse 4" cx="2" cy="2.5" rx="2" ry="2.5" transform="translate(208.617 -0.461)" fill="#85c1f5"/>
    <circle id="Ellipse_4-17" data-name="Ellipse 4" cx="2.5" cy="2.5" r="2.5" transform="translate(221.617 -0.461)" fill="#85c1f5"/>
    <circle id="Ellipse_4-18" data-name="Ellipse 4" cx="2.5" cy="2.5" r="2.5" transform="translate(235.617 -0.461)" fill="#85c1f5"/>
    <circle id="Ellipse_4-19" data-name="Ellipse 4" cx="2.5" cy="2.5" r="2.5" transform="translate(249.617 -0.461)" fill="#85c1f5"/>
    <circle id="Ellipse_4-20" data-name="Ellipse 4" cx="2.5" cy="2.5" r="2.5" transform="translate(263.617 -0.461)" fill="#85c1f5"/>
    <circle id="Ellipse_4-21" data-name="Ellipse 4" cx="2.5" cy="2.5" r="2.5" transform="translate(-0.383 13.539)" fill="#85c1f5"/>
    <circle id="Ellipse_4-22" data-name="Ellipse 4" cx="2.5" cy="2.5" r="2.5" transform="translate(13.617 13.539)" fill="#85c1f5"/>
    <circle id="Ellipse_4-23" data-name="Ellipse 4" cx="2.5" cy="2.5" r="2.5" transform="translate(27.617 13.539)" fill="#85c1f5"/>
    <circle id="Ellipse_4-24" data-name="Ellipse 4" cx="2.5" cy="2.5" r="2.5" transform="translate(41.617 13.539)" fill="#85c1f5"/>
    <circle id="Ellipse_4-25" data-name="Ellipse 4" cx="2.5" cy="2.5" r="2.5" transform="translate(55.617 13.539)" fill="#85c1f5"/>
    <circle id="Ellipse_4-26" data-name="Ellipse 4" cx="2.5" cy="2.5" r="2.5" transform="translate(69.617 13.539)" fill="#85c1f5"/>
    <circle id="Ellipse_4-27" data-name="Ellipse 4" cx="2.5" cy="2.5" r="2.5" transform="translate(83.617 13.539)" fill="#85c1f5"/>
    <ellipse id="Ellipse_4-28" data-name="Ellipse 4" cx="2" cy="2.5" rx="2" ry="2.5" transform="translate(97.617 13.539)" fill="#85c1f5"/>
    <circle id="Ellipse_4-29" data-name="Ellipse 4" cx="2.5" cy="2.5" r="2.5" transform="translate(110.617 13.539)" fill="#85c1f5"/>
    <circle id="Ellipse_4-30" data-name="Ellipse 4" cx="2.5" cy="2.5" r="2.5" transform="translate(124.617 13.539)" fill="#85c1f5"/>
    <circle id="Ellipse_4-31" data-name="Ellipse 4" cx="2.5" cy="2.5" r="2.5" transform="translate(138.617 13.539)" fill="#85c1f5"/>
    <circle id="Ellipse_4-32" data-name="Ellipse 4" cx="2.5" cy="2.5" r="2.5" transform="translate(152.617 13.539)" fill="#85c1f5"/>
    <circle id="Ellipse_4-33" data-name="Ellipse 4" cx="2.5" cy="2.5" r="2.5" transform="translate(166.617 13.539)" fill="#85c1f5"/>
    <circle id="Ellipse_4-34" data-name="Ellipse 4" cx="2.5" cy="2.5" r="2.5" transform="translate(180.617 13.539)" fill="#85c1f5"/>
    <circle id="Ellipse_4-35" data-name="Ellipse 4" cx="2.5" cy="2.5" r="2.5" transform="translate(194.617 13.539)" fill="#85c1f5"/>
    <ellipse id="Ellipse_4-36" data-name="Ellipse 4" cx="2" cy="2.5" rx="2" ry="2.5" transform="translate(208.617 13.539)" fill="#85c1f5"/>
    <circle id="Ellipse_4-37" data-name="Ellipse 4" cx="2.5" cy="2.5" r="2.5" transform="translate(221.617 13.539)" fill="#85c1f5"/>
    <circle id="Ellipse_4-38" data-name="Ellipse 4" cx="2.5" cy="2.5" r="2.5" transform="translate(235.617 13.539)" fill="#85c1f5"/>
    <circle id="Ellipse_4-39" data-name="Ellipse 4" cx="2.5" cy="2.5" r="2.5" transform="translate(249.617 13.539)" fill="#85c1f5"/>
    <circle id="Ellipse_4-40" data-name="Ellipse 4" cx="2.5" cy="2.5" r="2.5" transform="translate(263.617 13.539)" fill="#85c1f5"/>
    <circle id="Ellipse_4-41" data-name="Ellipse 4" cx="2.5" cy="2.5" r="2.5" transform="translate(-0.383 27.539)" fill="#85c1f5"/>
    <circle id="Ellipse_4-42" data-name="Ellipse 4" cx="2.5" cy="2.5" r="2.5" transform="translate(13.617 27.539)" fill="#85c1f5"/>
    <circle id="Ellipse_4-43" data-name="Ellipse 4" cx="2.5" cy="2.5" r="2.5" transform="translate(27.617 27.539)" fill="#85c1f5"/>
    <circle id="Ellipse_4-44" data-name="Ellipse 4" cx="2.5" cy="2.5" r="2.5" transform="translate(41.617 27.539)" fill="#85c1f5"/>
    <circle id="Ellipse_4-45" data-name="Ellipse 4" cx="2.5" cy="2.5" r="2.5" transform="translate(55.617 27.539)" fill="#85c1f5"/>
    <circle id="Ellipse_4-46" data-name="Ellipse 4" cx="2.5" cy="2.5" r="2.5" transform="translate(69.617 27.539)" fill="#85c1f5"/>
    <circle id="Ellipse_4-47" data-name="Ellipse 4" cx="2.5" cy="2.5" r="2.5" transform="translate(83.617 27.539)" fill="#85c1f5"/>
    <ellipse id="Ellipse_4-48" data-name="Ellipse 4" cx="2" cy="2.5" rx="2" ry="2.5" transform="translate(97.617 27.539)" fill="#85c1f5"/>
    <circle id="Ellipse_4-49" data-name="Ellipse 4" cx="2.5" cy="2.5" r="2.5" transform="translate(110.617 27.539)" fill="#85c1f5"/>
    <circle id="Ellipse_4-50" data-name="Ellipse 4" cx="2.5" cy="2.5" r="2.5" transform="translate(124.617 27.539)" fill="#85c1f5"/>
    <circle id="Ellipse_4-51" data-name="Ellipse 4" cx="2.5" cy="2.5" r="2.5" transform="translate(138.617 27.539)" fill="#85c1f5"/>
    <circle id="Ellipse_4-52" data-name="Ellipse 4" cx="2.5" cy="2.5" r="2.5" transform="translate(152.617 27.539)" fill="#85c1f5"/>
    <circle id="Ellipse_4-53" data-name="Ellipse 4" cx="2.5" cy="2.5" r="2.5" transform="translate(166.617 27.539)" fill="#85c1f5"/>
    <circle id="Ellipse_4-54" data-name="Ellipse 4" cx="2.5" cy="2.5" r="2.5" transform="translate(180.617 27.539)" fill="#85c1f5"/>
    <circle id="Ellipse_4-55" data-name="Ellipse 4" cx="2.5" cy="2.5" r="2.5" transform="translate(194.617 27.539)" fill="#85c1f5"/>
    <ellipse id="Ellipse_4-56" data-name="Ellipse 4" cx="2" cy="2.5" rx="2" ry="2.5" transform="translate(208.617 27.539)" fill="#85c1f5"/>
    <circle id="Ellipse_4-57" data-name="Ellipse 4" cx="2.5" cy="2.5" r="2.5" transform="translate(221.617 27.539)" fill="#85c1f5"/>
    <circle id="Ellipse_4-58" data-name="Ellipse 4" cx="2.5" cy="2.5" r="2.5" transform="translate(235.617 27.539)" fill="#85c1f5"/>
    <circle id="Ellipse_4-59" data-name="Ellipse 4" cx="2.5" cy="2.5" r="2.5" transform="translate(249.617 27.539)" fill="#85c1f5"/>
    <circle id="Ellipse_4-60" data-name="Ellipse 4" cx="2.5" cy="2.5" r="2.5" transform="translate(263.617 27.539)" fill="#85c1f5"/>
    <circle id="Ellipse_4-61" data-name="Ellipse 4" cx="2.5" cy="2.5" r="2.5" transform="translate(-0.383 41.539)" fill="#85c1f5"/>
    <circle id="Ellipse_4-62" data-name="Ellipse 4" cx="2.5" cy="2.5" r="2.5" transform="translate(13.617 41.539)" fill="#85c1f5"/>
    <circle id="Ellipse_4-63" data-name="Ellipse 4" cx="2.5" cy="2.5" r="2.5" transform="translate(27.617 41.539)" fill="#85c1f5"/>
    <circle id="Ellipse_4-64" data-name="Ellipse 4" cx="2.5" cy="2.5" r="2.5" transform="translate(41.617 41.539)" fill="#85c1f5"/>
    <circle id="Ellipse_4-65" data-name="Ellipse 4" cx="2.5" cy="2.5" r="2.5" transform="translate(55.617 41.539)" fill="#85c1f5"/>
    <circle id="Ellipse_4-66" data-name="Ellipse 4" cx="2.5" cy="2.5" r="2.5" transform="translate(69.617 41.539)" fill="#85c1f5"/>
    <circle id="Ellipse_4-67" data-name="Ellipse 4" cx="2.5" cy="2.5" r="2.5" transform="translate(83.617 41.539)" fill="#85c1f5"/>
    <ellipse id="Ellipse_4-68" data-name="Ellipse 4" cx="2" cy="2.5" rx="2" ry="2.5" transform="translate(97.617 41.539)" fill="#85c1f5"/>
    <circle id="Ellipse_4-69" data-name="Ellipse 4" cx="2.5" cy="2.5" r="2.5" transform="translate(110.617 41.539)" fill="#85c1f5"/>
    <circle id="Ellipse_4-70" data-name="Ellipse 4" cx="2.5" cy="2.5" r="2.5" transform="translate(124.617 41.539)" fill="#85c1f5"/>
    <circle id="Ellipse_4-71" data-name="Ellipse 4" cx="2.5" cy="2.5" r="2.5" transform="translate(138.617 41.539)" fill="#85c1f5"/>
    <circle id="Ellipse_4-72" data-name="Ellipse 4" cx="2.5" cy="2.5" r="2.5" transform="translate(152.617 41.539)" fill="#85c1f5"/>
    <circle id="Ellipse_4-73" data-name="Ellipse 4" cx="2.5" cy="2.5" r="2.5" transform="translate(166.617 41.539)" fill="#85c1f5"/>
    <circle id="Ellipse_4-74" data-name="Ellipse 4" cx="2.5" cy="2.5" r="2.5" transform="translate(180.617 41.539)" fill="#85c1f5"/>
    <circle id="Ellipse_4-75" data-name="Ellipse 4" cx="2.5" cy="2.5" r="2.5" transform="translate(194.617 41.539)" fill="#85c1f5"/>
    <ellipse id="Ellipse_4-76" data-name="Ellipse 4" cx="2" cy="2.5" rx="2" ry="2.5" transform="translate(208.617 41.539)" fill="#85c1f5"/>
    <circle id="Ellipse_4-77" data-name="Ellipse 4" cx="2.5" cy="2.5" r="2.5" transform="translate(221.617 41.539)" fill="#85c1f5"/>
    <circle id="Ellipse_4-78" data-name="Ellipse 4" cx="2.5" cy="2.5" r="2.5" transform="translate(235.617 41.539)" fill="#85c1f5"/>
    <circle id="Ellipse_4-79" data-name="Ellipse 4" cx="2.5" cy="2.5" r="2.5" transform="translate(249.617 41.539)" fill="#85c1f5"/>
    <circle id="Ellipse_4-80" data-name="Ellipse 4" cx="2.5" cy="2.5" r="2.5" transform="translate(263.617 41.539)" fill="#85c1f5"/>
  </g>
</svg>
