<?xml version="1.0" encoding="UTF-8"?>
<svg width="339px" height="115px" viewBox="0 0 339 115" version="1.1" xmlns="http://www.w3.org/2000/svg" xmlns:xlink="http://www.w3.org/1999/xlink">
    <title>logo</title>
    <g id="Page-1" stroke="none" stroke-width="1" fill="none" fill-rule="evenodd">
        <g id="logo">
            <rect id="Rectangle" x="0" y="0" width="339" height="115"></rect>
            <g id="Group" transform="translate(14.000000, 15.000000)" fill="#000000" fill-rule="nonzero">
                <path d="M112.73,34.96 C114.31,34.96 115.92,34.73 117.56,34.27 C119.2,33.81 120.64,33.15 121.88,32.29 L121.88,32.29 L121.88,23.41 L115.73,23.41 L115.73,28.72 C114.91,29.06 114.05,29.23 113.15,29.23 C111.63,29.23 110.415,28.75 109.505,27.79 C108.595,26.83 108.14,25.56 108.14,23.98 C108.14,22.36 108.6,21.08 109.52,20.14 C110.44,19.2 111.68,18.73 113.24,18.73 C115.06,18.73 116.63,19.5 117.95,21.04 L117.95,21.04 L122.48,17.05 C121.4,15.73 120.045,14.725 118.415,14.035 C116.785,13.345 114.94,13 112.88,13 C110.6,13 108.555,13.465 106.745,14.395 C104.935,15.325 103.525,16.625 102.515,18.295 C101.505,19.965 101,21.86 101,23.98 C101,26.1 101.505,27.995 102.515,29.665 C103.525,31.335 104.92,32.635 106.7,33.565 C108.48,34.495 110.49,34.96 112.73,34.96 Z M137.39,34.48 L137.39,26.86 L145.31,13.48 L138.47,13.48 L134.15,20.74 L129.86,13.48 L122.39,13.48 L130.31,26.77 L130.31,34.48 L137.39,34.48 Z M152.66,34.48 L152.66,25.24 L157.22,32.59 L160.34,32.59 L164.9,24.91 L164.96,34.48 L171.41,34.48 L171.35,13.48 L165.53,13.48 L158.87,24.67 L152.03,13.48 L146.21,13.48 L146.21,34.48 L152.66,34.48 Z M108.29,71.48 L108.29,62.24 L112.85,69.59 L115.97,69.59 L120.53,61.91 L120.59,71.48 L127.04,71.48 L126.98,50.48 L121.16,50.48 L114.5,61.67 L107.66,50.48 L101.84,50.48 L101.84,71.48 L108.29,71.48 Z M135.38,71.48 L136.79,67.82 L144.77,67.82 L146.18,71.48 L153.5,71.48 L144.32,50.48 L137.36,50.48 L128.18,71.48 L135.38,71.48 Z M142.82,62.72 L138.74,62.72 L140.78,57.44 L142.82,62.72 Z M161.54,71.48 L161.54,61.94 L169.52,71.48 L175.34,71.48 L175.34,50.48 L168.44,50.48 L168.44,60.02 L160.46,50.48 L154.64,50.48 L154.64,71.48 L161.54,71.48 Z M189.65,71.96 C191.23,71.96 192.84,71.73 194.48,71.27 C196.12,70.81 197.56,70.15 198.8,69.29 L198.8,69.29 L198.8,60.41 L192.65,60.41 L192.65,65.72 C191.83,66.06 190.97,66.23 190.07,66.23 C188.55,66.23 187.335,65.75 186.425,64.79 C185.515,63.83 185.06,62.56 185.06,60.98 C185.06,59.36 185.52,58.08 186.44,57.14 C187.36,56.2 188.6,55.73 190.16,55.73 C191.98,55.73 193.55,56.5 194.87,58.04 L194.87,58.04 L199.4,54.05 C198.32,52.73 196.965,51.725 195.335,51.035 C193.705,50.345 191.86,50 189.8,50 C187.52,50 185.475,50.465 183.665,51.395 C181.855,52.325 180.445,53.625 179.435,55.295 C178.425,56.965 177.92,58.86 177.92,60.98 C177.92,63.1 178.425,64.995 179.435,66.665 C180.445,68.335 181.84,69.635 183.62,70.565 C185.4,71.495 187.41,71.96 189.65,71.96 Z M219.29,71.48 L219.29,66.14 L208.79,66.14 L208.79,63.38 L217.67,63.38 L217.67,58.28 L208.79,58.28 L208.79,55.82 L218.9,55.82 L218.9,50.48 L201.83,50.48 L201.83,71.48 L219.29,71.48 Z M228.47,71.48 L228.47,62.24 L233.03,69.59 L236.15,69.59 L240.71,61.91 L240.77,71.48 L247.22,71.48 L247.16,50.48 L241.34,50.48 L234.68,61.67 L227.84,50.48 L222.02,50.48 L222.02,71.48 L228.47,71.48 Z M268.1,71.48 L268.1,66.14 L257.6,66.14 L257.6,63.38 L266.48,63.38 L266.48,58.28 L257.6,58.28 L257.6,55.82 L267.71,55.82 L267.71,50.48 L250.64,50.48 L250.64,71.48 L268.1,71.48 Z M277.73,71.48 L277.73,61.94 L285.71,71.48 L291.53,71.48 L291.53,50.48 L284.63,50.48 L284.63,60.02 L276.65,50.48 L270.83,50.48 L270.83,71.48 L277.73,71.48 Z M306.59,71.48 L306.59,55.97 L312.74,55.97 L312.74,50.48 L293.36,50.48 L293.36,55.97 L299.51,55.97 L299.51,71.48 L306.59,71.48 Z" id="GYMMANGEMENT"></path>
                <g id="health">
                    <path d="M70.3846154,0 L66,14.7619048 L73.3076923,14.7619048 L73.3076923,20.6666667 L74.7692308,20.6666667 C76.3813077,20.6666667 77.6923077,19.3425238 77.6923077,17.7142857 L80.6153846,17.7142857 C80.6153846,20.9707619 77.9933846,23.6190476 74.7692308,23.6190476 L73.3076923,23.6190476 L73.3076923,28.047619 C73.3076923,29.6788095 74.6157692,31 76.2307692,31 L85,31 L85,0 L70.3846154,0 Z" id="Path" fill-opacity="0"></path>
                    <path d="M84.8221447,42.5394868 C78.6135135,40.373347 71.2695728,42.1499682 66.5845684,46.7379624 C67.0188317,46.4852213 67.5583261,46.4287262 68.0370532,46.6874141 C70.0008718,47.74744 71.7364429,49.1330559 73.157803,50.7773597 C73.7328684,51.4434068 73.6172624,52.4632914 72.9013949,52.9747205 C72.2922406,53.4103272 71.4400174,53.3330181 70.9523976,52.7621206 C69.7444638,51.3467705 68.2816042,50.1797013 66.5830863,49.277267 C65.9176112,48.9234294 65.6567568,48.0968174 65.9561465,47.4040095 C65.9768963,47.354948 66.0198779,47.3252137 66.0450741,47.2791256 C66.0258065,47.2999396 66.0035745,47.3192669 65.9828248,47.3415676 C57.6384481,43.6693882 46.3742807,46.062995 40.742197,53.3478853 L40.5361813,53.1694798 C37.8683522,51.3408237 36.6974717,50.5826004 34.6076722,50.1960552 C32.7698344,49.8541114 31.3025283,49.8838456 30.4725371,50.1068524 C30.902354,48.2633292 31.1246731,46.3603374 31.1394943,44.4722128 C31.1632084,41.2014457 30.6474281,37.9589262 30.3910201,34.7074864 C29.6632956,34.2138979 28.9548387,33.6890884 28.2878814,33.1003504 C23.8266783,29.1427222 21.2685266,23.4530742 21.2685266,17.4883845 C21.2685266,15.9585575 21.4285963,14.4584648 21.7472537,13 L19.7863993,14.5149598 L19.1342633,14.9609735 C18.3487358,15.3326516 17.5632084,15.7340639 16.9110724,16.3138817 C15.2807323,17.7411255 14.8064516,20.3131378 14.0505667,22.2755981 C13.0723627,24.7881419 12.0941587,27.3006857 11.1159547,29.8280966 C9.1299041,34.9126527 7.14385353,40.0120759 5.17262424,45.096632 C4.03138622,48.0254552 2.87532694,56.9308619 2.10462075,59.9786222 C1.54141238,62.2086906 1.15605929,64.5428289 0,66.5350234 C1.7489102,67.575722 3.48299913,68.6164207 5.23190933,69.6422521 C18.6748038,77.6556315 35.8081953,83.513278 51.4149956,84.8364519 C58.9442023,85.4757382 76.2999128,84.4201725 83.5178727,78.443589 L85,78.443589 L85,42.5394868 L84.8221447,42.5394868 Z M31.5159547,51.9786232 C30.4666085,55.5571398 28.7058413,58.6732888 26.3462947,61.1263641 C25.744551,61.7522699 24.742633,61.7433497 24.1720139,61.0891962 L24.1468178,61.0609487 C23.6577158,60.5019449 23.6458588,59.6455986 24.1631212,59.1133556 C26.2114211,57.0007374 27.746905,54.2874874 28.6687881,51.1505245 C28.8925894,50.3908145 29.6380994,49.9165533 30.4073235,50.093472 L30.4473409,50.1023923 C31.2817786,50.2926915 31.7575414,51.1549846 31.5159547,51.9786232 L31.5159547,51.9786232 Z M41.1720139,55.3192658 C40.7392328,55.9972066 40.3598082,56.7108285 40.0367044,57.4556714 C39.7387969,58.1425325 38.9384481,58.4577155 38.2314734,58.2183548 C37.4029643,57.9373662 36.9968614,57.0007374 37.3496077,56.1979128 C37.7171752,55.3579203 38.1469922,54.5506355 38.634612,53.7805186 C39.1044464,53.0386491 40.1078466,52.8587569 40.8014821,53.3939734 C41.3913688,53.8489073 41.5736704,54.6888998 41.1720139,55.3192658 L41.1720139,55.3192658 Z" id="Shape"></path>
                    <path d="M42.5,0 C35.4416667,0 29.375,4.17083333 26.6041667,10.1645833 C25.56875,12.3958333 25,14.875 25,17.5 C25,22.7208333 27.2895833,27.4166667 30.9208333,30.625 C34.0125,33.3520833 38.0520833,35 42.5,35 C52.16875,35 60,27.16875 60,17.5 C60,7.83125 52.16875,0 42.5,0 Z M42.5,29.1666667 C36.0570833,29.1666667 30.8333333,23.9429167 30.8333333,17.5 C30.8333333,11.0570833 36.0570833,5.83333333 42.5,5.83333333 C48.9429167,5.83333333 54.1666667,11.0570833 54.1666667,17.5 C54.1666667,23.9429167 48.9429167,29.1666667 42.5,29.1666667 Z" id="Shape"></path>
                    <path d="M50,17.5 C50,19.1575 46.7675,19.5955 45.6815,20.6815 C44.5955,21.7675 44.1575,25 42.5,25 C40.8425,25 40.4045,21.7675 39.3185,20.6815 C38.2325,19.5955 35,19.1575 35,17.5 C35,15.8425 38.2325,15.4045 39.3185,14.3185 C40.4045,13.2325 40.8425,10 42.5,10 C44.1575,10 44.5955,13.2325 45.6815,14.3185 C46.7675,15.4045 50,15.8425 50,17.5 L50,17.5 Z" id="Path"></path>
                </g>
            </g>
        </g>
    </g>
</svg>